<?xml version="1.0" encoding="utf-8"?>
<!-- Generator: Adobe Illustrator 25.0.1, SVG Export Plug-In . SVG Version: 6.00 Build 0)  -->
<svg version="1.1" id="Layer_1" xmlns="http://www.w3.org/2000/svg" xmlns:xlink="http://www.w3.org/1999/xlink" x="0px" y="0px"
	 viewBox="0 0 237.2 242.2" style="enable-background:new 0 0 237.2 242.2;" xml:space="preserve">
<style type="text/css">
	.st0{fill:none;stroke:#000000;stroke-width:9;stroke-miterlimit:10;}
	.st1{fill:none;stroke:#000000;stroke-width:6;stroke-miterlimit:10;}
</style>
<g id="Layer_1_1_">
	<rect x="4.5" y="4.5" class="st0" width="229" height="234"/>
	<line class="st0" x1="56" y1="21" x2="56" y2="94"/>
	<line class="st0" x1="193.5" y1="24" x2="56.5" y2="95"/>
	<line class="st0" x1="136.5" y1="53" x2="187.5" y2="102.5"/>
	<path class="st1" d="M55,91c-2,4,2,7,4,4"/>
</g>
<g id="Layer_2_1_">
	<path class="st0" d="M173.8,121c9.1-0.1,18.1,8,17.1,16"/>
	<path class="st0" d="M191.1,148c0,9.1-8.9,18-18.1,18"/>
	<line class="st0" x1="191" y1="136" x2="191" y2="150"/>
</g>
<g id="Layer_3">
	<line class="st0" x1="151.3" y1="166.5" x2="190.5" y2="208.5"/>
	<line class="st0" x1="57" y1="166" x2="174" y2="166"/>
	<line class="st0" x1="52" y1="121" x2="174" y2="121"/>
	<line class="st0" x1="57" y1="121" x2="57" y2="211"/>
</g>
</svg>
