<?xml version="1.0" standalone="no"?>
<!DOCTYPE svg PUBLIC "-//W3C//DTD SVG 20010904//EN"
 "http://www.w3.org/TR/2001/REC-SVG-20010904/DTD/svg10.dtd">
<svg version="1.0" xmlns="http://www.w3.org/2000/svg"
 width="926.000000pt" height="926.000000pt" viewBox="0 0 926.000000 926.000000"
 preserveAspectRatio="xMidYMid meet">
<metadata>
Created by potrace 1.11, written by Peter Selinger 2001-2013
</metadata>
<g transform="translate(0.000000,926.000000) scale(0.100000,-0.100000)"
fill="#000000" stroke="none">
<path d="M1085 5637 c2 -1992 4 -3758 5 -3925 l0 -302 450 1 450 1 0 347 0
347 78 80 c42 45 115 121 161 170 149 159 374 396 451 475 41 42 183 188 315
324 553 571 719 735 740 731 11 -2 45 -7 76 -10 31 -4 65 -8 75 -10 11 -2 39
-7 64 -11 25 -4 72 -14 105 -22 33 -8 67 -16 75 -18 68 -13 279 -82 295 -97 5
-4 15 -8 22 -8 8 0 75 -29 149 -65 l135 -64 -23 -43 c-13 -24 -26 -44 -30 -46
-13 -6 -97 -217 -118 -297 -30 -112 -28 -106 -45 -220 -27 -178 -27 -256 -1
-360 1 -5 6 -26 10 -45 5 -19 11 -39 15 -45 4 -5 13 -28 20 -50 35 -104 193
-386 267 -474 11 -13 27 -32 37 -44 51 -63 153 -156 200 -185 100 -60 189 -64
249 -10 102 93 130 122 186 188 80 96 71 82 125 173 70 114 114 215 146 329
20 71 24 93 37 170 4 21 10 36 14 33 4 -3 41 -49 81 -102 41 -54 77 -99 82
-101 4 -2 7 -10 7 -17 0 -7 4 -15 8 -17 5 -1 25 -28 45 -58 20 -30 40 -59 45
-65 27 -36 122 -187 122 -195 0 -5 5 -10 10 -10 6 0 10 -4 10 -9 0 -8 61 -116
91 -161 5 -8 12 -23 15 -32 4 -10 11 -18 16 -18 5 0 7 -4 3 -9 -3 -5 2 -16 10
-25 17 -17 21 -53 10 -106 -4 -19 -9 -42 -10 -50 -2 -8 -4 -15 -5 -15 -3 0
-11 -111 -14 -200 -3 -112 12 -275 34 -375 5 -25 12 -56 14 -70 16 -100 61
-226 94 -262 8 -10 12 -18 9 -18 -4 0 0 -8 7 -17 8 -10 31 -38 51 -63 51 -63
159 -173 207 -212 22 -18 45 -38 52 -44 30 -28 204 -154 213 -154 5 0 18 -9
28 -20 10 -11 22 -20 28 -20 5 0 21 -8 35 -19 59 -41 276 -143 333 -155 13 -3
53 -13 89 -22 73 -18 185 -14 236 8 45 20 85 57 125 118 50 76 129 220 121
220 -4 0 -2 4 4 8 8 5 43 85 50 112 0 3 5 16 11 30 10 24 49 159 59 203 6 27
10 47 20 117 11 65 11 330 1 380 -3 19 -11 58 -16 85 -6 28 -19 76 -30 108
-11 31 -18 57 -16 57 3 0 -37 79 -91 181 -8 15 -21 32 -29 39 -8 7 -15 17 -15
22 0 10 -50 66 -125 140 -70 69 -254 208 -275 208 -6 0 -10 5 -10 10 0 6 -6
10 -14 10 -7 0 -25 9 -38 20 -32 25 -203 109 -284 141 -49 18 -65 30 -80 58
-10 20 -32 59 -48 86 -16 28 -38 66 -48 85 -11 19 -47 78 -80 130 -33 52 -65
104 -71 114 -68 111 -302 435 -324 449 -7 4 -13 12 -13 17 0 6 -8 18 -17 28
-10 10 -29 32 -43 48 -110 130 -142 167 -195 223 -33 36 -117 121 -188 190
l-127 126 47 30 c27 16 50 32 53 35 3 3 21 17 40 30 214 147 525 479 628 671
77 144 57 206 -93 277 -61 30 -136 56 -190 68 -99 20 -200 35 -270 39 -44 2
-82 5 -85 6 -3 1 -9 1 -13 0 -5 -1 -52 -3 -105 -6 -54 -2 -112 -6 -129 -9 -18
-3 -48 -8 -65 -12 -267 -45 -492 -210 -629 -460 l-40 -72 -91 45 c-138 68
-206 98 -278 123 -36 13 -69 26 -75 30 -5 3 -56 21 -112 40 -57 18 -103 36
-103 39 0 3 177 184 393 403 374 378 857 870 1170 1192 l145 150 43 -14 c256
-81 500 -19 794 201 93 70 102 77 197 166 32 30 62 51 68 48 5 -3 10 -1 10 4
0 6 3 10 8 9 14 -3 94 34 200 93 24 13 66 48 93 79 65 73 71 80 89 115 8 17
17 32 20 35 5 5 60 117 81 165 44 100 90 293 92 385 0 50 -13 121 -29 153 -18
34 -78 74 -123 82 -19 3 -37 8 -41 10 -7 4 -39 11 -105 22 -22 4 -80 7 -128 7
l-88 1 8 80 c15 154 7 583 -13 616 -2 3 -6 21 -9 40 -7 40 -47 172 -55 179 -3
3 -14 22 -25 44 -22 42 -85 102 -125 118 -59 24 -195 12 -410 -37 -17 -4 -128
-37 -140 -42 -8 -3 -20 -7 -25 -8 -6 -2 -46 -17 -90 -36 -125 -51 -243 -116
-332 -181 -29 -21 -55 -38 -59 -38 -3 1 -11 -6 -18 -16 -14 -18 -36 -12 -36
11 0 7 -3 15 -7 17 -5 2 -21 21 -36 44 -41 60 -125 147 -177 181 -53 35 -92
48 -140 44 -39 -2 -120 -38 -120 -52 0 -5 -4 -8 -8 -6 -23 6 -193 -157 -245
-235 -73 -110 -157 -300 -175 -393 -17 -90 1 -227 48 -374 l20 -64 -29 -86
c-28 -80 -36 -109 -46 -171 -2 -14 -7 -36 -10 -50 -14 -58 -14 -248 1 -306 36
-144 105 -250 226 -350 l38 -30 -106 -110 c-140 -145 -784 -800 -1176 -1196
-1025 -1037 -1342 -1358 -1465 -1484 -164 -167 -569 -585 -612 -631 -17 -18
-31 -32 -32 -30 0 1 -2 1313 -4 2915 -3 1602 -7 2917 -10 2922 -4 6 -180 10
-450 9 l-445 0 5 -3622z"/>
</g>
</svg>
